<svg width="97" height="96" fill="none" xmlns="http://www.w3.org/2000/svg"><circle cx="48.667" cy="48" r="48" fill="#FFECE2"/><rect x="25" y="24" width="7.636" height="49.091" rx="2" fill="#FFC8C8"/><rect x="38.091" y="24" width="34.909" height="49.091" rx="2" fill="#FFC8C8"/><mask id="a" style="mask-type:alpha" maskUnits="userSpaceOnUse" x="38" y="24" width="35" height="50"><rect x="38.091" y="24" width="34.909" height="49.091" rx="2" fill="#FEBBCF"/></mask><g mask="url(#a)"><path d="m85.554 9.11-8.932 43.47-33.18-29.47 42.112-14Z" fill="#FFB8B8"/></g><path d="M65.364 30.546c-.579 0-1.134.215-1.543.599-.41.383-.64.903-.64 1.446v3.068c0 1.899-.804 3.72-2.236 5.062-1.432 1.343-3.374 2.097-5.4 2.097-2.025 0-3.967-.754-5.4-2.097-1.431-1.342-2.236-3.163-2.236-5.062v-3.068a1.98 1.98 0 0 0-.639-1.446c-.41-.384-.964-.6-1.543-.6-.578 0-1.133.216-1.542.6-.41.383-.64.903-.64 1.446v3.068c0 2.984 1.265 5.845 3.515 7.955 2.25 2.11 5.303 3.295 8.485 3.295 3.183 0 6.235-1.185 8.486-3.295 2.25-2.11 3.514-4.971 3.514-7.955v-3.068a1.98 1.98 0 0 0-.639-1.446 2.256 2.256 0 0 0-1.542-.6Z" fill="#FF3A3A"/></svg>